<svg xmlns="http://www.w3.org/2000/svg" xmlns:xlink="http://www.w3.org/1999/xlink" width="79" height="72" viewBox="0 0 79 72">
    <defs>
        <path id="a" d="M64.624 50H.156V.136h64.468V50z"/>
        <path id="c" d="M9.661.316v31.43H.649V.316h9.012z"/>
    </defs>
    <g fill="none" fill-rule="evenodd">
        <path fill="#F4F4F4" d="M16.805 0v63.42h46.113V12.202L50.716 0z"/>
        <path fill="#E6E6E6" d="M50.717 0v12.202h12.2z"/>
        <path fill="#ACEEF9" d="M9.9 71.127a4.466 4.466 0 0 1-3.741-3.28L.149 45.094c-.743-2.837 1.392-5.608 4.318-5.608h4.449l2.249 28.45c0 1.62-2.824 2.962-1.265 3.19"/>
        <g transform="translate(7 21.17)">
            <mask id="b" fill="#fff">
                <use xlink:href="#a"/>
            </mask>
            <path fill="#7FD6EA" d="M61.644 7.571H32.199c-.34 0-.664-.146-.891-.399L25.258.383a.722.722 0 0 0-.538-.247H3.388A3.235 3.235 0 0 0 .156 3.37v43.398a3.22 3.22 0 0 0 2.95 3.215c.09.012.186.018.282.018h58.004c.432 0 .84-.084 1.21-.234.02 0 .03-.006.05-.018a3.241 3.241 0 0 0 1.972-2.98V10.55a2.98 2.98 0 0 0-2.98-2.98" mask="url(#b)"/>
        </g>
        <g transform="translate(69 39.17)">
            <mask id="d" fill="#fff">
                <use xlink:href="#c"/>
            </mask>
            <path fill="#ACEEF9" d="M9.513 5.923L3.497 28.676a4.429 4.429 0 0 1-2.848 3.07c1.157-.492.786-1.643.786-2.98L2.402.316h2.787c2.932 0 5.067 2.77 4.324 5.607" mask="url(#d)"/>
        </g>
        <path fill="#97DEF0" d="M71.622 39.486v28.45a3.245 3.245 0 0 1-1.974 2.981.082.082 0 0 1-.047.017c-.45.151-.93.235-1.42.235h-57.7a3.68 3.68 0 0 1-.378-.019c-.065-.006-.137-.012-.204-.023a3.221 3.221 0 0 1-2.746-3.191v-28.45h64.47z"/>
    </g>
</svg>
