<svg xmlns="http://www.w3.org/2000/svg" xmlns:xlink="http://www.w3.org/1999/xlink" width="79" height="72" viewBox="0 0 79 72">
    <defs>
        <path id="a" d="M64.624 50H.156V.136h64.468V50z"/>
    </defs>
    <g fill="none" fill-rule="evenodd">
        <path fill="#F4F4F4" d="M16.805 0v63.42h46.113V12.202L50.716 0z"/>
        <path fill="#E6E6E6" d="M50.717 0v12.202h12.2z"/>
        <path fill="#FFD2C2" d="M9.9 71.127a4.468 4.468 0 0 1-3.742-3.28L.148 45.094c-.742-2.837 1.393-5.608 4.319-5.608h4.449l2.249 28.45c0 1.62-2.824 2.962-1.265 3.19"/>
        <g transform="translate(7 21.17)">
            <mask id="b" fill="#fff">
                <use xlink:href="#a"/>
            </mask>
            <path fill="#FF9B78" d="M61.644 7.571H32.199c-.34 0-.664-.146-.891-.399L25.258.383a.722.722 0 0 0-.538-.247H3.388A3.235 3.235 0 0 0 .156 3.37v43.398a3.22 3.22 0 0 0 2.95 3.215c.09.012.186.018.282.018h58.004c.432 0 .84-.084 1.21-.234.02 0 .03-.006.049-.018a3.24 3.24 0 0 0 1.973-2.98V10.55a2.98 2.98 0 0 0-2.98-2.98" mask="url(#b)"/>
        </g>
        <path fill="#FFD2C2" d="M78.512 45.093l-6.015 22.753a4.429 4.429 0 0 1-2.848 3.07c1.157-.492.786-1.643.786-2.98l.967-28.45h2.787c2.932 0 5.067 2.77 4.323 5.607"/>
        <path fill="#FFBA94" d="M71.621 39.486v28.45a3.244 3.244 0 0 1-1.973 2.981.083.083 0 0 1-.048.017c-.45.151-.929.235-1.42.235H10.481a3.68 3.68 0 0 1-.378-.019c-.065-.006-.137-.012-.204-.023a3.221 3.221 0 0 1-2.746-3.191v-28.45h64.468z"/>
    </g>
</svg>
