<svg xmlns="http://www.w3.org/2000/svg" xmlns:xlink="http://www.w3.org/1999/xlink" width="79" height="72" viewBox="0 0 79 72">
    <defs>
        <path id="a" d="M0 31.956V.315h11.164v31.64z"/>
        <path id="c" d="M64.624 50H.157V.136h64.467V50z"/>
        <path id="e" d="M9.661.316v31.43H.649V.316H9.66z"/>
    </defs>
    <g fill="none" fill-rule="evenodd">
        <path fill="#F4F4F4" d="M16.806 0v63.42h46.113V12.202L50.717 0z"/>
        <path fill="#E6E6E6" d="M50.717 0v12.202h12.202z"/>
        <g transform="translate(0 39.17)">
            <mask id="b" fill="#fff">
                <use xlink:href="#a"/>
            </mask>
            <path fill="#FFC0C0" d="M9.9 31.956a4.466 4.466 0 0 1-3.742-3.28L.148 5.923C-.595 3.086 1.54.315 4.466.315h4.45l2.248 28.45c0 1.62-2.824 2.962-1.264 3.19" mask="url(#b)"/>
        </g>
        <g transform="translate(7 21.17)">
            <mask id="d" fill="#fff">
                <use xlink:href="#c"/>
            </mask>
            <path fill="#FF6161" d="M61.644 7.571H32.199c-.34 0-.664-.146-.891-.399L25.26.383a.726.726 0 0 0-.54-.247H3.388A3.234 3.234 0 0 0 .157 3.37v43.398a3.219 3.219 0 0 0 2.95 3.215c.09.012.185.018.28.018h58.005c.432 0 .84-.084 1.212-.234.018 0 .029-.006.048-.018a3.241 3.241 0 0 0 1.972-2.98V10.55a2.98 2.98 0 0 0-2.98-2.98" mask="url(#d)"/>
        </g>
        <g transform="translate(69 39.17)">
            <mask id="f" fill="#fff">
                <use xlink:href="#e"/>
            </mask>
            <path fill="#FFC0C0" d="M9.513 5.923L3.497 28.676a4.426 4.426 0 0 1-2.848 3.07c1.158-.492.786-1.643.786-2.98L2.402.316h2.787c2.932 0 5.067 2.77 4.324 5.607" mask="url(#f)"/>
        </g>
        <path fill="#FF8383" d="M71.622 39.486v28.45a3.243 3.243 0 0 1-1.974 2.981c-.017.011-.029.017-.047.017-.45.151-.93.235-1.42.235h-57.7c-.126 0-.252-.006-.377-.019-.066-.006-.138-.012-.204-.023a3.221 3.221 0 0 1-2.747-3.191v-28.45h64.47z"/>
    </g>
</svg>
