<svg xmlns="http://www.w3.org/2000/svg" xmlns:xlink="http://www.w3.org/1999/xlink" width="700" height="584" viewBox="0 0 700 584">
    <defs>
        <path id="a" d="M301.138 459.931V.668H.582v459.263h300.556z"/>
        <path id="c" d="M175.498.888v207.254H.793V.888h174.705z"/>
    </defs>
    <g fill="none" fill-rule="evenodd">
        <path fill="#DD3A3A" d="M0 583.468h417.82V228.957H0z"/>
        <g transform="translate(398.859 74.338)">
            <mask id="b" fill="#fff">
                <use xlink:href="#a"/>
            </mask>
            <path fill="#C93535" d="M301.138 448.636c-79.462 25.906-170.242 7.249-233.382-55.964C3.45 328.292-14.688 235.192 13.352 154.6h86.363l-56.658-57.49a231.41 231.41 0 0 1 24.7-29.18c63.139-63.214 153.919-81.872 233.381-55.965v436.672z" mask="url(#b)"/>
        </g>
        <path fill="#C60214" d="M362.962 160.784v-4.514h6.765v-6.774h4.51l.001 6.774 6.765-.001.001 4.515h-6.766v6.774h-4.51v-6.773z"/>
        <g transform="translate(524.5 200.123)">
            <mask id="d" fill="#fff">
                <use xlink:href="#c"/>
            </mask>
            <path fill="#DD3A3A" d="M175.498 29.304v150.423c-40.544 38.524-104.62 37.875-144.387-1.937-40.424-40.47-40.424-106.079 0-146.55C70.877-8.57 134.954-9.22 175.498 29.305" mask="url(#d)"/>
        </g>
        <path fill="#DD3A3A" d="M273.816.974h224.757l-112.33 113.974zM498.574 228.938H412.21a227.914 227.914 0 0 1 29.705-57.492l56.658 57.492z"/>
        <path fill="#C93535" d="M441.915 171.446a227.914 227.914 0 0 0-29.705 57.492H273.816l112.429-113.975 55.67 56.483zM.007-.001v228.858l115.788-114.382z"/>
        <path fill="#DD3A3A" d="M135.906-.001v228.858l115.788-114.382z"/>
        <path fill="#C93535" d="M333.185 114.415l-32.377 32.415-32.377-32.415 32.377-32.414z"/>
        <path fill="#DD3A3A" d="M645.097 58.302c0 4.187-3.392 7.583-7.576 7.583-4.183 0-7.574-3.396-7.574-7.583 0-4.19 3.391-7.584 7.574-7.584 4.184 0 7.576 3.395 7.576 7.584M618.52 58.302c0 4.187-3.391 7.583-7.575 7.583-4.183 0-7.575-3.396-7.575-7.583 0-4.19 3.392-7.584 7.575-7.584 4.184 0 7.575 3.395 7.575 7.584M589.231 58.302c0 4.187-3.391 7.583-7.574 7.583-4.184 0-7.575-3.396-7.575-7.583 0-4.19 3.39-7.584 7.575-7.584 4.183 0 7.574 3.395 7.574 7.584M645.097 85.994c0 4.19-3.392 7.585-7.576 7.585-4.183 0-7.574-3.396-7.574-7.585 0-4.187 3.391-7.583 7.574-7.583 4.184 0 7.576 3.396 7.576 7.583M618.52 85.994c0 4.19-3.391 7.585-7.575 7.585-4.183 0-7.575-3.396-7.575-7.585 0-4.187 3.392-7.583 7.575-7.583 4.184 0 7.575 3.396 7.575 7.583M589.231 85.994c0 4.19-3.391 7.585-7.574 7.585-4.184 0-7.575-3.396-7.575-7.585 0-4.187 3.39-7.583 7.575-7.583 4.183 0 7.574 3.396 7.574 7.583M645.097 112.948c0 4.19-3.392 7.584-7.576 7.584-4.183 0-7.574-3.395-7.574-7.584 0-4.187 3.391-7.583 7.574-7.583 4.184 0 7.576 3.396 7.576 7.583M618.52 112.948c0 4.19-3.391 7.584-7.575 7.584-4.183 0-7.575-3.395-7.575-7.584 0-4.187 3.392-7.583 7.575-7.583 4.184 0 7.575 3.396 7.575 7.583M589.231 112.948c0 4.19-3.391 7.584-7.574 7.584-4.184 0-7.575-3.395-7.575-7.584 0-4.187 3.39-7.583 7.575-7.583 4.183 0 7.574 3.396 7.574 7.583M645.097 31.421c0 4.188-3.392 7.584-7.576 7.584-4.183 0-7.574-3.396-7.574-7.584s3.391-7.584 7.574-7.584c4.184 0 7.576 3.396 7.576 7.584M618.52 31.421c0 4.188-3.391 7.584-7.575 7.584-4.183 0-7.575-3.396-7.575-7.584s3.392-7.584 7.575-7.584c4.184 0 7.575 3.396 7.575 7.584M589.231 31.421c0 4.188-3.391 7.584-7.574 7.584-4.184 0-7.575-3.396-7.575-7.584s3.39-7.584 7.575-7.584c4.183 0 7.574 3.396 7.574 7.584M562.763 58.302c0 4.187-3.391 7.583-7.575 7.583-4.183 0-7.575-3.396-7.575-7.583 0-4.19 3.392-7.584 7.575-7.584 4.184 0 7.575 3.395 7.575 7.584M562.763 85.994c0 4.19-3.391 7.585-7.575 7.585-4.183 0-7.575-3.396-7.575-7.585 0-4.187 3.392-7.583 7.575-7.583 4.184 0 7.575 3.396 7.575 7.583M562.763 112.948c0 4.19-3.391 7.584-7.575 7.584-4.183 0-7.575-3.395-7.575-7.584 0-4.187 3.392-7.583 7.575-7.583 4.184 0 7.575 3.396 7.575 7.583M562.763 31.421c0 4.188-3.391 7.584-7.575 7.584-4.183 0-7.575-3.396-7.575-7.584s3.392-7.584 7.575-7.584c4.184 0 7.575 3.396 7.575 7.584"/>
        <path fill="#E84949" d="M.104 258.055c81.494 0 147.557 66.14 147.557 147.727S81.598 553.508.104 553.508"/>
        <path fill="#DD3A3A" d="M.041 339.416c36.61 0 66.29 29.714 66.29 66.366S36.65 472.147.04 472.147"/>
        <path fill="#C93535" d="M270.481 308.532l-45.126 45.177-45.126-45.177 45.126-45.178z"/>
        <path fill="#E84949" d="M379.17 308.532l-45.126 45.177-45.126-45.177 45.126-45.178z"/>
        <path fill="#C93535" d="M38.889 455.207c0 4.188-3.391 7.584-7.575 7.584s-7.575-3.396-7.575-7.584 3.391-7.584 7.575-7.584 7.575 3.396 7.575 7.584M38.889 482.9c0 4.188-3.391 7.585-7.575 7.585s-7.575-3.397-7.575-7.584c0-4.188 3.391-7.585 7.575-7.585s7.575 3.397 7.575 7.585M38.889 509.854c0 4.188-3.391 7.584-7.575 7.584s-7.575-3.396-7.575-7.584c0-4.187 3.391-7.584 7.575-7.584s7.575 3.397 7.575 7.584M38.889 428.327c0 4.188-3.391 7.584-7.575 7.584s-7.575-3.396-7.575-7.584 3.391-7.584 7.575-7.584 7.575 3.396 7.575 7.584"/>
        <path fill="#E84949" d="M244.869 251.046c0 4.188-3.392 7.584-7.576 7.584-4.183 0-7.574-3.396-7.574-7.584s3.391-7.584 7.574-7.584c4.184 0 7.576 3.396 7.576 7.584M218.292 251.046c0 4.188-3.391 7.584-7.575 7.584-4.183 0-7.575-3.396-7.575-7.584s3.392-7.584 7.575-7.584c4.184 0 7.575 3.396 7.575 7.584M189.003 251.046c0 4.188-3.391 7.584-7.575 7.584-4.183 0-7.574-3.396-7.574-7.584s3.391-7.584 7.574-7.584c4.184 0 7.575 3.396 7.575 7.584M162.535 251.046c0 4.188-3.391 7.584-7.575 7.584-4.183 0-7.575-3.396-7.575-7.584s3.392-7.584 7.575-7.584c4.184 0 7.575 3.396 7.575 7.584"/>
    </g>
</svg>
