<svg xmlns="http://www.w3.org/2000/svg" xmlns:xlink="http://www.w3.org/1999/xlink" width="700" height="588" viewBox="0 0 700 588">
    <defs>
        <path id="a" d="M0 588h701.697V.513H0z"/>
    </defs>
    <g fill="none" fill-rule="evenodd">
        <path fill="#6F4C7F" d="M.218 0l-.01 139.667H384.76V.404z"/>
        <path fill="#6F4C7F" d="M351.64 516.292h350.021V.875H351.64z"/>
        <g transform="translate(0 -.513)">
            <path fill="#795691" d="M273.52 366.09v151.8c-21.9 10.45-46.42 16.3-72.3 16.3-92.84 0-168.11-75.26-168.13-168.1h240.43z"/>
            <path fill="#6F4C7F" d="M273.52 517.89V588H0V366.09h33.09c.02 92.84 75.29 168.1 168.13 168.1 25.88 0 50.4-5.85 72.3-16.3"/>
            <path fill="#FFF" d="M274.296 105.03h3.99M234.194 160.945v3.99M293.015 105.03h3.98"/>
            <path fill="#795691" d="M701.697 201.255L501.867 1.41h-117.24l199.834 199.845-364.993 365h117.24z"/>
            <path fill="#795691" d="M261.198.747L143.812.601l200.602 200.612-200.116 200.125 41.12 76.12 276.234-276.245z"/>
            <path fill="#5E4477" d="M701.64 1.37v75.07L626.57 1.37zM369.35 366.06c0 66.97-39.16 124.79-95.83 151.83v-151.8H33.09v-.03c0-75.64 49.96-139.62 118.69-160.74a167.732 167.732 0 0 1 41.81-7.22 177.1 177.1 0 0 1 7.63-.17 168.5 168.5 0 0 1 46.71 6.57c70.13 20.24 121.42 84.92 121.42 161.56"/>
            <path fill="#795691" d="M26.677 556.6h37.006l-18.495-19.348z"/>
            <path fill="#5E4477" d="M26.64 522.847h37.006L45.151 503.5zM26.64 487.36h37.006l-18.495-19.347zM597.072 184.85v32.33l16.902-16.158zM625.572 184.85v32.33l16.902-16.158zM322.57 117.65l-44.73 44.73L116.01.55h89.46z"/>
            <path fill="#795691" d="M150.45 140.065H85.38l-29.22-29.21v-65.08z"/>
            <path fill="#6F4C7F" d="M150.64 140.255l-94.48 94.49v-123.89l29.22 29.21h65.07z"/>
            <mask id="b" fill="#fff">
                <use xlink:href="#a"/>
            </mask>
            <path fill="#6F4C7F" d="M583.175 516.805H700.64v-195.66H583.175zM301.33 109.513h-.012c-17.576.007-31.821 14.257-31.821 31.833 0 17.577 14.245 31.828 31.821 31.834h.012c17.577 0 31.833-14.25 31.833-31.834 0-17.582-14.256-31.833-31.833-31.833" mask="url(#b)"/>
            <path fill="#5E4477" d="M684.237 351.027a7.597 7.597 0 1 1-15.195 0 7.597 7.597 0 0 1 15.195 0M684.237 387.277a7.597 7.597 0 1 1-15.195 0 7.597 7.597 0 0 1 15.195 0M684.237 423.277a7.597 7.597 0 1 1-15.195 0 7.597 7.597 0 0 1 15.195 0M684.237 313.027a7.597 7.597 0 1 1-15.195 0 7.597 7.597 0 0 1 15.195 0M701.675 516.831h-71.452v-71.453z" mask="url(#b)"/>
            <path fill="#795691" d="M630.365 516.976h-71.452v-71.452z" mask="url(#b)"/>
            <path fill="#5E4477" d="M85.63 140.315l-29.47 29.46-2.45 2.45-31.91-31.91.25-.25 31.66-31.66 2.45 2.45 29.22 29.21zM401.504 141.055L350.87 191.69V90.42zM452.243 139.649l-50.635 50.635V89.014z" mask="url(#b)"/>
            <path fill="#6F4C7F" d="M295.692 366.097l-94.469 94.469-94.468-94.47 94.468-94.468z" mask="url(#b)"/>
        </g>
    </g>
</svg>
