<svg xmlns="http://www.w3.org/2000/svg" xmlns:xlink="http://www.w3.org/1999/xlink" width="701" height="588" viewBox="0 0 701 588">
    <defs>
        <path id="a" d="M.504 506.02l292.493-252.828L.504.148z"/>
        <path id="c" d="M.504 506.02l292.493-252.827L.504.149z"/>
    </defs>
    <g fill="none" fill-rule="evenodd">
        <path fill="#E6AA82" d="M.784 575.675H439V219.269H.784zM.809 159.534h120.308V-.005H.809zM567.951 554.709h134.848V349.616H567.951zM702.797-.004v250.21c-68.99 22.29-147.7 6.04-202.48-48.75-54.51-54.5-70.87-132.71-49.06-201.46h251.54z"/>
        <path fill="#ED7D5F" d="M703.258 1.306v141.22c-.15.14-.3.29-.46.43-38.13 35.73-98.03 34.98-135.25-2.25-38-37.99-38-99.59 0-137.58 1.08-1.08 2.17-2.12 3.29-3.13h131.01c.32.29.64.58.95.88.16.14.31.29.46.43"/>
        <path fill="#EF9067" d="M616.227 530.717h55.189l-27.583-28.854z"/>
        <path fill="#ED7D5F" d="M616.172 480.379h55.19l-27.584-28.853zM616.172 427.456h55.19l-27.584-28.853zM311.548 516.476v70.11H.8v-221.91h37.384c.023 92.84 85.604 168.1 191.161 168.1 29.425 0 57.304-5.85 82.204-16.3"/>
        <path fill="#ED7D5F" d="M180.505 81.648V587.52l292.493-252.828z"/>
        <g transform="translate(180 81.5)">
            <mask id="b" fill="#fff">
                <use xlink:href="#a"/>
            </mask>
            <path fill="#ED7D5F" d="M-1852 2076h3653.504V-.703H-1852z" mask="url(#b)"/>
        </g>
        <g transform="translate(180 81.5)">
            <mask id="d" fill="#fff">
                <use xlink:href="#c"/>
            </mask>
            <path fill="#ED7D5F" d="M-12.359 517.295h318.222V-11.126H-12.359z" mask="url(#d)"/>
        </g>
        <g>
            <path fill="#ED7D5F" d="M180.553 253.452v225.675c-62.303-.022-112.795-50.534-112.795-112.837 0-62.304 50.492-112.817 112.795-112.838"/>
            <path fill="#E6AA82" d="M293.432 366.29c0 62.323-50.534 112.837-112.837 112.837h-.042V253.452h.042c62.303 0 112.837 50.514 112.837 112.838M331.64 20.91v129.562c-35.768-.013-64.755-29.012-64.755-64.782 0-35.768 28.987-64.767 64.755-64.78"/>
            <path fill="#ED7D5F" d="M396.445 85.69c0 35.781-29.012 64.781-64.78 64.781h-.025V20.911h.024c35.77 0 64.781 29 64.781 64.78M38.482 233.846a7.597 7.597 0 1 1-15.195 0 7.597 7.597 0 0 1 15.195 0M38.482 270.096a7.597 7.597 0 1 1-15.195 0 7.597 7.597 0 0 1 15.195 0M38.482 306.096a7.597 7.597 0 1 1-15.195 0 7.597 7.597 0 0 1 15.195 0"/>
            <path fill="#E6AA82" d="M38.482 195.846a7.597 7.597 0 1 1-15.195 0 7.597 7.597 0 0 1 15.195 0"/>
            <path fill="#ED7D5F" d="M405.958 159.72h101.08v87.447zM636.81 261.275a7.597 7.597 0 1 1-15.195 0 7.597 7.597 0 0 1 15.195 0M610.157 261.275a7.597 7.597 0 1 1-15.195 0 7.597 7.597 0 0 1 15.195 0M580.784 261.275a7.597 7.597 0 1 1-15.194 0 7.597 7.597 0 0 1 15.194 0M636.81 289.015a7.597 7.597 0 1 1-15.193.001 7.597 7.597 0 0 1 15.193 0M610.157 289.015a7.597 7.597 0 1 1-15.193.001 7.597 7.597 0 0 1 15.193 0M580.784 289.015a7.597 7.597 0 1 1-15.193.001 7.597 7.597 0 0 1 15.193 0M636.81 316.015a7.597 7.597 0 1 1-15.193.001 7.597 7.597 0 0 1 15.193 0M610.157 316.015a7.597 7.597 0 1 1-15.193.001 7.597 7.597 0 0 1 15.193 0M580.784 316.015a7.597 7.597 0 1 1-15.193.001 7.597 7.597 0 0 1 15.193 0M636.81 234.35a7.597 7.597 0 1 1-15.195-.001 7.597 7.597 0 0 1 15.195 0M610.157 234.35a7.597 7.597 0 1 1-15.195-.001 7.597 7.597 0 0 1 15.195 0M580.784 234.35a7.597 7.597 0 1 1-15.194-.001 7.597 7.597 0 0 1 15.194 0M554.24 261.275a7.597 7.597 0 1 1-15.195 0 7.597 7.597 0 0 1 15.195 0M554.24 289.015a7.597 7.597 0 1 1-15.193.001 7.597 7.597 0 0 1 15.193 0M554.24 316.015a7.597 7.597 0 1 1-15.193.001 7.597 7.597 0 0 1 15.193 0M554.24 234.35a7.597 7.597 0 1 1-15.195-.001 7.597 7.597 0 0 1 15.195 0M156.375 70.854a7.597 7.597 0 1 1-15.193 0 7.597 7.597 0 0 1 15.193 0M129.722 70.854a7.597 7.597 0 1 1-15.193 0 7.597 7.597 0 0 1 15.193 0M100.35 70.854a7.597 7.597 0 1 1-15.193 0 7.597 7.597 0 0 1 15.193 0M156.375 98.596a7.597 7.597 0 1 1-15.195-.001 7.597 7.597 0 0 1 15.195 0M129.722 98.596a7.597 7.597 0 1 1-15.195-.001 7.597 7.597 0 0 1 15.195 0M100.35 98.596a7.597 7.597 0 1 1-15.195-.001 7.597 7.597 0 0 1 15.195 0M156.375 125.596a7.597 7.597 0 1 1-15.195-.001 7.597 7.597 0 0 1 15.195 0M129.722 125.596a7.597 7.597 0 1 1-15.195-.001 7.597 7.597 0 0 1 15.195 0M100.35 125.596a7.597 7.597 0 1 1-15.195-.001 7.597 7.597 0 0 1 15.195 0M156.375 43.928a7.597 7.597 0 1 1-15.195 0 7.597 7.597 0 0 1 15.195 0M129.722 43.928a7.597 7.597 0 1 1-15.195 0 7.597 7.597 0 0 1 15.195 0M100.35 43.928a7.597 7.597 0 1 1-15.195 0 7.597 7.597 0 0 1 15.195 0M73.805 70.854a7.597 7.597 0 1 1-15.193 0 7.597 7.597 0 0 1 15.193 0M73.805 98.596a7.597 7.597 0 1 1-15.194-.001 7.597 7.597 0 0 1 15.194 0M73.805 125.596a7.597 7.597 0 1 1-15.194-.001 7.597 7.597 0 0 1 15.194 0M73.805 43.928a7.597 7.597 0 1 1-15.194 0 7.597 7.597 0 0 1 15.194 0"/>
            <path fill="#EF9067" d="M49.353 503.155h-.01c-16.359.006-29.615 13.268-29.615 29.624 0 16.357 13.256 29.62 29.614 29.625h.011c16.357 0 29.625-13.262 29.625-29.625 0-16.362-13.268-29.624-29.625-29.624"/>
        </g>
    </g>
</svg>
