<svg xmlns="http://www.w3.org/2000/svg" xmlns:xlink="http://www.w3.org/1999/xlink" viewBox="0 0 135 103">
    <defs>
        <path id="a" d="M0 .265V102.41h104.026V.265z"/>
    </defs>
    <g fill="none" fill-rule="evenodd">
        <path fill="#E84949" d="M24.284 8.243a50.825 50.825 0 0 0-9.375 7.419c-.462.463-.915.926-1.35 1.415a50.885 50.885 0 0 0-6.431 8.617 12.365 12.365 0 0 1-4.819-9.805c0-6.816 5.516-12.347 12.32-12.347a12.23 12.23 0 0 1 9.655 4.7"/>
        <g transform="translate(0 .437)">
            <mask id="b" fill="#fff">
                <use xlink:href="#a"/>
            </mask>
            <path fill="#ED7D5F" d="M78.215 77.62l18.851.007-29.77-29.856L37.533 77.62H55.93v24.79h-4.281v-.014a50.986 50.986 0 0 1-6.12-.267 50.636 50.636 0 0 1-21.32-7.287 51.104 51.104 0 0 1-9.304-7.387c-.077-.078-.16-.162-.23-.253C6.545 78.952 1.803 68.619.424 57.929c-1.447-11.168.798-22.707 6.702-32.676a51.27 51.27 0 0 1 6.428-8.614c.44-.49.889-.954 1.35-1.416a50.915 50.915 0 0 1 9.38-7.416c19.62-12.114 45.655-9.63 62.66 7.416 8.282 8.306 13.101 18.772 14.48 29.588l2.601 57.6h-25.81V77.62z" mask="url(#b)"/>
        </g>
        <path fill="#E84949" d="M134.356 72.368c0 16.836-13.612 30.486-30.4 30.486-24.81 0-25.74-14.26-25.74-14.26V78.055l18.85.007-19.963-20.02c5.12-9.625 15.22-16.17 26.853-16.17 16.788 0 30.4 13.652 30.4 30.495"/>
        <path fill="#C93535" d="M78.215 78.057v24.79h24.72z"/>
        <path fill="#E6AA82" d="M26.942 15.89c0 6.824-5.515 12.355-12.312 12.355a12.27 12.27 0 0 1-7.502-2.551 50.918 50.918 0 0 1 6.43-8.617c.436-.49.89-.952 1.35-1.415a50.872 50.872 0 0 1 9.376-7.419 12.24 12.24 0 0 1 2.658 7.646"/>
    </g>
</svg>
