<?xml version="1.0" standalone="no"?>
<!DOCTYPE svg PUBLIC "-//W3C//DTD SVG 20010904//EN"
 "http://www.w3.org/TR/2001/REC-SVG-20010904/DTD/svg10.dtd">
<svg version="1.0" xmlns="http://www.w3.org/2000/svg"
 width="700.000000pt" height="700.000000pt" viewBox="0 0 700.000000 700.000000"
 preserveAspectRatio="xMidYMid meet">
<metadata>
Created by potrace 1.11, written by Peter Selinger 2001-2013
</metadata>
<g transform="translate(0.000000,700.000000) scale(0.100000,-0.100000)"
fill="#000000" stroke="none">
<path d="M2165 5469 c-627 -49 -1063 -295 -1278 -719 -72 -143 -119 -323 -137
-521 -6 -69 -10 -620 -10 -1396 l0 -1283 510 0 509 0 4 1298 3 1297 22 78 c76
263 215 410 440 468 72 18 122 19 1302 19 1189 0 1229 -1 1304 -20 190 -48
331 -177 402 -367 59 -155 57 -133 64 -868 7 -747 7 -740 75 -945 177 -532
691 -849 1418 -877 l157 -6 0 382 0 381 -30 0 c-62 0 -187 32 -259 67 -52 25
-93 55 -140 102 -88 88 -125 160 -187 361 -4 14 -10 324 -14 690 -6 546 -10
681 -23 755 -52 292 -163 511 -349 690 -227 220 -498 338 -918 401 -104 16
-243 18 -1435 20 -726 1 -1369 -2 -1430 -7z"/>
<path d="M3020 2750 l0 -1170 510 0 510 0 0 1170 0 1170 -510 0 -510 0 0
-1170z"/>
</g>
</svg>
