<?xml version="1.0" standalone="no"?>
<!DOCTYPE svg PUBLIC "-//W3C//DTD SVG 20010904//EN"
 "http://www.w3.org/TR/2001/REC-SVG-20010904/DTD/svg10.dtd">
<svg version="1.0" xmlns="http://www.w3.org/2000/svg"
 width="700.000000pt" height="700.000000pt" viewBox="0 0 700.000000 700.000000"
 preserveAspectRatio="xMidYMid meet">
<metadata>
Created by potrace 1.11, written by Peter Selinger 2001-2013
</metadata>
<g transform="translate(0.000000,700.000000) scale(0.100000,-0.100000)"
fill="#000000" stroke="none">
<path d="M0 3500 l0 -3500 3500 0 3500 0 0 3500 0 3500 -3500 0 -3500 0 0
-3500z m3687 1503 c130 -60 147 -239 31 -326 -79 -60 -189 -53 -255 15 -62 64
-78 140 -44 213 49 106 162 147 268 98z m-947 -1438 l0 -1405 -145 0 -145 0 0
110 0 111 -52 -54 c-74 -75 -150 -123 -243 -154 -74 -26 -92 -27 -250 -28
-161 0 -175 2 -258 29 -197 64 -320 191 -395 406 -56 160 -67 255 -67 555 0
299 10 380 64 540 40 117 95 207 174 283 118 113 269 164 482 164 214 0 342
-46 476 -170 l69 -64 0 541 0 541 145 0 145 0 0 -1405z m2769 534 c153 -39
275 -123 358 -247 48 -73 99 -209 126 -336 18 -89 21 -136 22 -381 0 -232 -3
-295 -18 -370 -72 -358 -223 -539 -505 -606 -73 -18 -110 -20 -227 -17 -119 4
-152 8 -218 31 -97 34 -169 79 -241 152 l-56 57 0 -546 0 -546 -145 0 -145 0
0 1405 0 1405 145 0 145 0 0 -109 0 -108 68 66 c101 100 214 152 370 171 91
11 230 2 321 -21z m-1769 -969 l0 -970 -145 0 -145 0 0 970 0 970 145 0 145 0
0 -970z"/>
<path d="M1830 3856 c-128 -28 -218 -103 -280 -231 -55 -113 -70 -196 -77
-426 -10 -356 34 -551 153 -679 160 -171 513 -172 666 -1 90 100 132 232 150
468 19 258 -12 515 -78 650 -89 183 -302 271 -534 219z"/>
<path d="M5120 3860 c-72 -15 -164 -66 -210 -116 -57 -61 -107 -171 -132 -290
-18 -84 -22 -132 -22 -324 0 -192 4 -240 22 -324 54 -253 175 -380 387 -408
158 -21 313 22 402 112 63 62 117 178 139 296 27 140 27 530 1 652 -45 211
-133 330 -284 384 -66 24 -229 33 -303 18z"/>
</g>
</svg>
